<svg width="31" height="29" viewBox="0 0 31 29" fill="none" xmlns="http://www.w3.org/2000/svg">
<path fill-rule="evenodd" clip-rule="evenodd" d="M13.7502 3.16091C14.5115 1.78575 16.4885 1.78575 17.2498 3.1609L29.3566 25.0314C30.0946 26.3644 29.1305 28 27.6069 28H3.39314C1.86951 28 0.905433 26.3644 1.64335 25.0314L13.7502 3.16091Z" fill="#FFB121" stroke="#FFB121"/>
<path d="M15.0513 20.4L14.4213 15.018V11.436H16.5453V15.018L15.9513 20.4H15.0513ZM15.5013 24.216C15.0453 24.216 14.7093 24.108 14.4933 23.892C14.2893 23.664 14.1873 23.376 14.1873 23.028V22.722C14.1873 22.374 14.2893 22.092 14.4933 21.876C14.7093 21.648 15.0453 21.534 15.5013 21.534C15.9573 21.534 16.2873 21.648 16.4913 21.876C16.7073 22.092 16.8153 22.374 16.8153 22.722V23.028C16.8153 23.376 16.7073 23.664 16.4913 23.892C16.2873 24.108 15.9573 24.216 15.5013 24.216Z" fill="white"/>
</svg>
